<svg width="30" height="30" viewBox="0 0 30 30" fill="none" xmlns="http://www.w3.org/2000/svg">
<path fill-rule="evenodd" clip-rule="evenodd" d="M15 27C18.1826 27 21.2348 25.7357 23.4853 23.4853C25.7357 21.2348 27 18.1826 27 15C27 11.8174 25.7357 8.76516 23.4853 6.51472C21.2348 4.26428 18.1826 3 15 3C11.8174 3 8.76516 4.26428 6.51472 6.51472C4.26428 8.76516 3 11.8174 3 15C3 18.1826 4.26428 21.2348 6.51472 23.4853C8.76516 25.7357 11.8174 27 15 27ZM16.5 10.5C16.5 10.1022 16.342 9.72064 16.0607 9.43934C15.7794 9.15804 15.3978 9 15 9C14.6022 9 14.2206 9.15804 13.9393 9.43934C13.658 9.72064 13.5 10.1022 13.5 10.5V13.5H10.5C10.1022 13.5 9.72064 13.658 9.43934 13.9393C9.15804 14.2206 9 14.6022 9 15C9 15.3978 9.15804 15.7794 9.43934 16.0607C9.72064 16.342 10.1022 16.5 10.5 16.5H13.5V19.5C13.5 19.8978 13.658 20.2794 13.9393 20.5607C14.2206 20.842 14.6022 21 15 21C15.3978 21 15.7794 20.842 16.0607 20.5607C16.342 20.2794 16.5 19.8978 16.5 19.5V16.5H19.5C19.8978 16.5 20.2794 16.342 20.5607 16.0607C20.842 15.7794 21 15.3978 21 15C21 14.6022 20.842 14.2206 20.5607 13.9393C20.2794 13.658 19.8978 13.5 19.5 13.5H16.5V10.5Z" fill="white"/>
</svg>
